<?xml version="1.0" encoding="iso-8859-1"?>
<!-- Uploaded to: SVG Repo, www.svgrepo.com, Generator: SVG Repo Mixer Tools -->
<svg fill="#000000" version="1.1" id="Layer_1" xmlns="http://www.w3.org/2000/svg" xmlns:xlink="http://www.w3.org/1999/xlink" 
	 viewBox="0 0 512 512" xml:space="preserve">
<g>
	<g>
		<g>
			<path d="M328.033,216.1c-35.241,0-63.912,28.671-63.912,63.912s28.671,63.911,63.912,63.911s63.912-28.671,63.912-63.911
				C391.945,244.771,363.274,216.1,328.033,216.1z M328.033,328.152c-26.545,0-48.142-21.596-48.142-48.141
				c0-26.545,21.597-48.142,48.142-48.142s48.142,21.597,48.142,48.142C376.175,306.556,354.578,328.152,328.033,328.152z"/>
			<rect x="231.988" y="456.216" width="16.008" height="15.77"/>
			<rect x="264.001" y="456.216" width="16.008" height="15.77"/>
			<rect x="296.014" y="456.216" width="16.008" height="15.77"/>
			
				<rect x="24.691" y="176.075" transform="matrix(0.7071 -0.7071 0.7071 0.7071 -99.6406 127.3658)" width="158.466" height="15.77"/>
			
				<rect x="127.667" y="188.089" transform="matrix(-0.7071 0.7071 -0.7071 -0.7071 404.8215 224.2646)" width="56.594" height="15.77"/>
			
				<rect x="128.067" y="220.11" transform="matrix(-0.7071 0.7071 -0.7071 -0.7071 495.7715 250.6345)" width="135.821" height="15.77"/>
			
				<rect x="196.088" y="259.032" transform="matrix(-0.7071 -0.7071 0.7071 -0.7071 153.0348 615.4103)" width="15.77" height="33.958"/>
			
				<rect x="130.06" y="288.28" transform="matrix(-0.7071 -0.7071 0.7071 -0.7071 -6.3764 681.4485)" width="15.77" height="107.53"/>
			
				<rect x="75.774" y="270.129" transform="matrix(0.7071 -0.7071 0.7071 0.7071 -170.2476 145.0139)" width="28.297" height="15.77"/>
			<path d="M328.033,248.115c-17.588,0-31.896,14.309-31.896,31.896c0,17.588,14.309,31.895,31.896,31.895
				s31.896-14.309,31.896-31.895C359.93,262.425,345.621,248.115,328.033,248.115z M328.033,296.137
				c-8.892,0-16.126-7.234-16.126-16.125c0-8.892,7.234-16.126,16.126-16.126s16.126,7.234,16.126,16.126
				C344.16,288.903,336.925,296.137,328.033,296.137z"/>
			<path d="M437.02,74.98C388.667,26.629,324.381,0,256,0S123.333,26.629,74.98,74.98C26.629,123.333,0,187.619,0,256v256h512V256
				C512,187.619,485.371,123.333,437.02,74.98z M256,15.77c64.168,0,124.495,24.988,169.868,70.362
				c39.694,39.694,63.787,90.832,69.196,145.976h-83.947c-16.603-28.684-47.626-48.023-83.084-48.023
				c-11.389,0-22.319,2-32.463,5.659c-0.813-12.938-3.164-25.624-7.043-37.911h79.406V72.033H231.957
				c-24.247-18.24-52.496-28.985-82.513-31.46C182.158,24.354,218.418,15.77,256,15.77z M408.189,280.011
				c0,44.198-35.958,80.156-80.156,80.156s-80.156-35.958-80.156-80.156s35.958-80.156,80.156-80.156
				S408.189,235.813,408.189,280.011z M352.163,119.819v16.245H207.858v-48.26h144.304v16.245h-112.17v15.77H352.163z M15.77,256
				c0-64.168,24.988-124.495,70.362-169.868c11.434-11.434,23.822-21.571,36.979-30.344h12.835c23.58,0,46.207,5.565,66.609,16.245
				h-10.465v8.992c-13.786,3.519-24.01,16.041-24.01,30.908c0,14.867,10.225,27.389,24.01,30.908v8.992h79.802
				c5.13,14.477,7.888,29.613,8.205,45.115c-28.664,16.607-47.987,47.62-47.987,83.064c0,35.424,19.302,66.421,47.941,83.035
				c-1.564,29.57-26.111,53.146-56.063,53.146H15.77V256z M192.088,97.88v28.105c-4.911-2.767-8.24-8.025-8.24-14.052
				C183.848,105.906,187.178,100.647,192.088,97.88z M15.77,455.973h184.323v16.245H15.77V455.973z M496.23,456.212H328.033v15.77
				H496.23v24.248H15.77v-8.241h200.093v-47.785H15.77v-8.24h208.215c36.228,0,66.27-26.932,71.192-61.824
				c10.254,3.749,21.32,5.797,32.855,5.797c32.049,0,60.474-15.8,77.903-40.018h90.295V456.212z M496.23,320.148h-81.083
				c5.652-12.218,8.812-25.815,8.812-40.137c0-11.266-1.959-22.082-5.543-32.133h77.663c0.088,2.701,0.15,5.407,0.15,8.123V320.148z
				"/>
		</g>
	</g>
</g>
</svg>